<svg width="1060" height="742" viewBox="0 0 1060 742" fill="none" xmlns="http://www.w3.org/2000/svg">
<path d="M131 726C203.349 726 262 667.349 262 595C262 522.651 203.349 464 131 464C58.6507 464 0 522.651 0 595C0 667.349 58.6507 726 131 726Z" fill="#BAA3EB"/>
<path d="M156.6 618.705C152.645 633.324 139.099 642.378 139.099 642.378C139.099 642.378 131.965 627.73 135.92 613.11C139.875 598.491 153.421 589.437 153.421 589.437C153.421 589.437 160.555 604.085 156.6 618.705Z" fill="#3F3D56"/>
<path d="M125.901 695.16C133.442 708.294 130.265 724.275 130.265 724.275C130.265 724.275 114.863 718.961 107.322 705.827C99.7806 692.693 102.957 676.713 102.957 676.713C102.957 676.713 118.36 682.026 125.901 695.16Z" fill="#3F3D56"/>
<path d="M118.053 525.116C125.594 538.25 122.417 554.23 122.417 554.23C122.417 554.23 107.014 548.917 99.4734 535.783C91.9324 522.649 95.1088 506.668 95.1088 506.668C95.1088 506.668 110.512 511.982 118.053 525.116Z" fill="#3F3D56"/>
<path d="M130.177 725.585L129.78 723.887L129.979 724.736L129.777 723.888C129.838 723.873 135.894 722.328 140.44 714.065C146.42 703.196 150.144 680.236 133.933 632.582C119.005 588.704 120.757 554.829 124.856 534.138C129.307 511.661 137.189 499.762 137.522 499.267L138.97 500.24C138.89 500.359 130.919 512.413 126.545 534.581C122.508 555.046 120.799 588.562 135.583 632.02C152.037 680.383 148.107 703.841 141.913 715.005C136.974 723.906 130.452 725.521 130.177 725.585Z" fill="#3F3D56"/>
<path d="M138.246 521.554C150.286 521.554 160.047 511.794 160.047 499.754C160.047 487.714 150.286 477.953 138.246 477.953C126.206 477.953 116.445 487.714 116.445 499.754C116.445 511.794 126.206 521.554 138.246 521.554Z" fill="#6C63FF"/>
<g clip-path="url(#clip0)">
<path d="M660.748 741.617C880.97 741.617 1059.5 733.558 1059.5 723.617C1059.5 713.676 880.97 705.617 660.748 705.617C440.526 705.617 262 713.676 262 723.617C262 733.558 440.526 741.617 660.748 741.617Z" fill="#E6E6E6"/>
<path d="M690 172.947H686.001V63.4019C686.001 55.0758 684.361 46.8313 681.175 39.139C677.989 31.4467 673.319 24.4573 667.431 18.5699C661.544 12.6825 654.554 8.01236 646.862 4.82613C639.17 1.63989 630.925 -2.88905e-05 622.599 3.81732e-10H390.513C382.187 -2.62641e-05 373.942 1.6399 366.25 4.82613C358.558 8.01237 351.568 12.6825 345.681 18.5699C339.793 24.4573 335.123 31.4467 331.937 39.139C328.751 46.8313 327.111 55.0758 327.111 63.4019V664.376C327.111 672.702 328.751 680.947 331.937 688.639C335.123 696.331 339.793 703.321 345.681 709.208C351.568 715.096 358.558 719.766 366.25 722.952C373.942 726.138 382.187 727.778 390.513 727.778H622.599C630.925 727.778 639.17 726.138 646.862 722.952C654.554 719.766 661.544 715.096 667.431 709.208C673.319 703.321 677.989 696.331 681.175 688.639C684.361 680.947 686.001 672.702 686.001 664.376V250.923H690V172.947Z" fill="#3F3D56"/>
<path d="M625.158 16.495H594.862C596.256 19.9106 596.787 23.6165 596.411 27.286C596.035 30.9556 594.762 34.4763 592.704 37.538C590.646 40.5997 587.867 43.1084 584.612 44.8431C581.356 46.5778 577.724 47.4852 574.035 47.4855H441.076C437.387 47.4852 433.755 46.5778 430.499 44.8431C427.244 43.1084 424.465 40.5997 422.407 37.538C420.35 34.4763 419.077 30.9556 418.7 27.286C418.324 23.6164 418.856 19.9106 420.249 16.4949H391.953C385.735 16.4949 379.578 17.7196 373.834 20.099C368.089 22.4785 362.87 25.9661 358.473 30.3627C354.077 34.7594 350.589 39.979 348.209 45.7235C345.83 51.468 344.605 57.6249 344.605 63.8427V663.935C344.605 670.153 345.83 676.31 348.209 682.054C350.589 687.799 354.077 693.019 358.473 697.415C362.87 701.812 368.089 705.299 373.834 707.679C379.578 710.058 385.735 711.283 391.953 711.283H625.158C631.375 711.283 637.532 710.058 643.277 707.679C649.021 705.299 654.241 701.812 658.637 697.415C663.034 693.019 666.522 687.799 668.901 682.054C671.281 676.31 672.505 670.153 672.505 663.935V63.8427C672.505 57.6249 671.281 51.468 668.901 45.7235C666.522 39.979 663.034 34.7594 658.637 30.3628C654.241 25.9661 649.021 22.4785 643.277 20.0991C637.532 17.7196 631.375 16.495 625.158 16.495V16.495Z" fill="white"/>
<path d="M540.978 177.704H458.318V185.38H540.978V177.704Z" fill="#6C63FF"/>
<path d="M602.387 204.259H458.318V211.935H602.387V204.259Z" fill="#E6E6E6"/>
<path d="M602.246 230.813H458.318V238.489H602.246V230.813Z" fill="#E6E6E6"/>
<path d="M441.187 177.818H379.778V239.228H441.187V177.818Z" fill="#6C63FF"/>
<path d="M540.978 338.904H458.318V346.58H540.978V338.904Z" fill="#6C63FF"/>
<path d="M602.387 365.458H458.318V373.134H602.387V365.458Z" fill="#E6E6E6"/>
<path d="M602.246 392.012H458.318V399.688H602.246V392.012Z" fill="#E6E6E6"/>
<path d="M441.187 339.018H379.778V400.427H441.187V339.018Z" fill="#6C63FF"/>
<path d="M540.978 500.103H458.318V507.779H540.978V500.103Z" fill="#6C63FF"/>
<path d="M602.387 526.657H458.318V534.334H602.387V526.657Z" fill="#E6E6E6"/>
<path d="M602.246 553.212H458.318V560.888H602.246V553.212Z" fill="#E6E6E6"/>
<path d="M441.187 500.217H379.778V561.626H441.187V500.217Z" fill="#6C63FF"/>
<path d="M920.987 330.691C937.804 330.691 951.437 317.058 951.437 300.242C951.437 283.425 937.804 269.792 920.987 269.792C904.171 269.792 890.538 283.425 890.538 300.242C890.538 317.058 904.171 330.691 920.987 330.691Z" fill="#2F2E41"/>
<path d="M937.019 320.513C937.019 320.513 936.561 339.309 938.395 339.767C940.228 340.226 913.181 347.561 913.181 347.561L910.43 321.888L937.019 320.513Z" fill="#FFB8B8"/>
<path d="M723.392 480.963C723.392 480.963 703.221 480.963 702.762 478.671C702.304 476.379 698.178 497.467 698.178 497.467L706.43 500.217C706.43 500.217 722.016 493.341 723.392 493.341C724.767 493.341 723.392 480.963 723.392 480.963Z" fill="#FFB8B8"/>
<path d="M701.387 489.215C701.387 489.215 705.055 476.837 709.639 476.379C709.639 476.379 694.052 466.293 693.594 463.084C693.135 459.875 687.634 451.624 685.342 454.374C683.05 457.125 683.05 500.676 687.176 505.26C691.302 509.844 709.639 498.816 709.639 498.816C709.639 498.816 698.178 493.799 701.387 489.215Z" fill="#2F2E41"/>
<path d="M950.314 664.793L953.981 684.505L937.019 687.256V664.793H950.314Z" fill="#FFB8B8"/>
<path d="M950.314 682.213C950.314 682.213 953.064 673.503 954.898 674.878C956.732 676.254 959.482 684.964 959.024 687.256C958.565 689.548 955.356 707.427 956.732 710.636C958.107 713.845 949.855 730.348 939.311 728.973C928.768 727.598 929.684 718.429 929.684 718.429L933.352 704.218L934.727 681.755C934.727 681.755 946.646 679.921 950.314 682.213Z" fill="#2F2E41"/>
<path d="M931.639 280.794C938.598 280.794 944.239 275.152 944.239 268.194C944.239 261.235 938.598 255.594 931.639 255.594C924.68 255.594 919.039 261.235 919.039 268.194C919.039 275.152 924.68 280.794 931.639 280.794Z" fill="#2F2E41"/>
<path d="M948.439 261.369C948.439 258.255 947.285 255.25 945.201 252.936C943.116 250.622 940.249 249.162 937.151 248.837C937.588 248.792 938.026 248.769 938.464 248.769C941.806 248.769 945.01 250.097 947.373 252.46C949.736 254.822 951.064 258.027 951.064 261.369C951.064 264.711 949.736 267.915 947.373 270.278C945.01 272.641 941.806 273.969 938.464 273.969C938.026 273.969 937.588 273.946 937.151 273.901C940.249 273.576 943.116 272.116 945.201 269.802C947.285 267.487 948.439 264.483 948.439 261.369V261.369Z" fill="#2F2E41"/>
<path d="M920.974 333.349C931.608 333.349 940.228 324.729 940.228 314.095C940.228 303.462 931.608 294.841 920.974 294.841C910.341 294.841 901.72 303.462 901.72 314.095C901.72 324.729 910.341 333.349 920.974 333.349Z" fill="#FFB8B8"/>
<path d="M959.024 447.956C959.024 447.956 958.107 470.878 954.44 482.797C950.772 494.716 937.55 579.601 940.301 586.019C943.051 592.437 957.19 663.418 953.981 667.543C950.772 671.669 935.644 670.294 935.644 670.294L915.087 584.185C915.087 584.185 919.141 489.215 885.217 486.923C851.293 484.631 795.823 483.255 795.823 483.255C795.823 483.255 760.066 493.799 744.021 493.341C727.976 492.882 718.807 497.466 718.807 497.466L716.057 478.671L787.113 463.084C787.113 463.084 852.21 440.621 887.967 446.581C923.725 452.541 959.024 447.956 959.024 447.956Z" fill="#2F2E41"/>
<path d="M933.352 333.808C933.352 333.808 938.853 330.599 940.228 333.808C941.604 337.017 951.231 339.767 954.898 337.017C958.565 334.266 967.734 337.933 967.734 337.933L977.819 367.731C977.819 367.731 972.777 393.403 968.192 407.615C963.608 421.826 961.774 451.165 963.608 453.916C965.442 456.666 926.934 467.669 908.138 460.792C889.343 453.916 885.217 446.123 885.217 446.123C885.217 446.123 905.846 416.783 898.97 403.03C892.093 389.277 897.594 373.691 897.594 373.691L894.844 358.104L910.43 349.394C910.43 349.394 911.347 341.142 915.015 341.142C918.682 341.142 933.352 333.808 933.352 333.808Z" fill="#D0CDE1"/>
<path d="M901.72 358.563H894.844C892.936 360.348 891.515 362.589 890.713 365.075C889.911 367.561 889.755 370.211 890.26 372.774C892.093 381.484 900.363 410.361 900.363 410.361L907.221 392.486L901.72 358.563Z" fill="#D0CDE1"/>
<path d="M881.974 432.184C881.974 432.184 868.255 447.039 878.34 454.833C888.426 462.626 890.911 436.954 890.911 436.954L881.974 432.184Z" fill="#FFB8B8"/>
<path d="M901.72 401.197L898.511 414.033L893.01 424.118C893.01 424.118 874.215 436.496 874.215 441.08C874.215 441.08 882.466 430.536 893.01 441.08L902.408 418.388L901.72 401.197Z" fill="#D0CDE1"/>
<path d="M917.445 306.385C929.043 306.385 938.445 300.744 938.445 293.786C938.445 286.827 929.043 281.186 917.445 281.186C905.848 281.186 896.446 286.827 896.446 293.786C896.446 300.744 905.848 306.385 917.445 306.385Z" fill="#2F2E41"/>
<path d="M959.024 294.841C959.024 294.841 944.354 286.59 938.395 292.549C932.435 298.509 956.273 307.677 956.273 307.677L959.024 294.841Z" fill="#FFB8B8"/>
<path d="M964.525 340.226L967.734 337.933C967.734 337.933 971.401 332.432 974.61 334.266C977.819 336.1 996.615 327.39 996.615 327.39C996.615 327.39 989.739 330.599 989.739 325.097C989.739 319.596 988.822 320.513 984.237 320.513C979.653 320.513 979.653 322.805 977.819 319.596C975.986 316.387 976.903 314.554 973.694 316.387C970.485 318.221 966.817 316.846 965.9 315.47C964.983 314.095 948.48 311.803 948.48 311.803C948.48 311.803 954.898 293.007 956.273 291.632C957.649 290.257 992.948 305.844 992.948 305.844C992.948 305.844 1037.42 318.221 1025.95 332.432C1014.49 346.644 973.235 368.19 973.235 368.19L964.525 340.226Z" fill="#D0CDE1"/>
</g>
<defs>
<clipPath id="clip0">
<rect width="797.496" height="741.617" fill="white" transform="translate(262)"/>
</clipPath>
</defs>
</svg>
