<svg xmlns="http://www.w3.org/2000/svg" viewBox="0 0 468.3 468.3"><path d="M234 33.7c62.8 0 115.2 52.4 115.3 115.4 0 14.7.4 28.3 1.3 40.9a14.4 14.4 0 0017.6 13l19.7-4.6a11 11 0 0113.2 8.2 14.5 14.5 0 01-9.4 16.8l-29.8 12a16 16 0 00-9.5 19.2c24 88.6 91 79.4 91 91 0 14.5-50.5 16.5-55.1 21s-.2 26.8-10.4 31c-2 .9-4.6 1.1-8 1.1-7.6 0-18.5-1.4-30-1.4-9.9 0-20.2 1-29.4 5.3-24.1 11.2-47.4 32-76.3 32s-52.2-20.8-76.4-32a70.2 70.2 0 00-29.4-5.3c-11.5 0-22.3 1.4-30 1.4-3.3 0-6-.2-8-1-10.2-4.3-5.8-26.5-10.4-31s-55-6.6-55-21.1c0-11.6 67-2.4 91-91a16 16 0 00-9.5-19.1l-30-12.1c-6.8-2.4-10.8-9.7-9.3-16.8a11 11 0 0113.3-8.2l19.7 4.6a14.4 14.4 0 0017.6-13 628 628 0 001.3-41C119 86 171 33.8 234 33.8m0-25a140.8 140.8 0 00-128.7 86A138.5 138.5 0 0094 149c0 9.2-.2 18.1-.6 26.7l-7.3-1.7a36.1 36.1 0 00-43.4 27 39.5 39.5 0 0024.8 45.6l22 8.9c-14.5 44.6-41.3 53.1-59.4 58.9-4.8 1.5-8.9 2.8-12.8 4.8A28.9 28.9 0 000 345.6c0 10.1 4.8 19.4 13.6 26 4.3 3.4 9.7 6.2 16.4 8.5 9.2 3.1 19.9 5.1 28.5 6.7.4 3.3 1 6.7 2 10.2a35.2 35.2 0 0020.2 23.7c6.5 2.7 13.2 3 17.7 3 4.4 0 9-.3 14-.7 5.2-.3 10.6-.8 16-.8 8.3 0 14.5 1 19 3 6 2.9 12.4 6.7 19.2 10.7 19 11 40.5 23.7 67.6 23.7s48.6-12.6 67.5-23.7c6.8-4 13.3-7.8 19.3-10.6 4.4-2 10.6-3 19-3 5.3 0 10.8.4 16 .7 5 .4 9.5.7 14 .7 4.4 0 11.1-.3 17.6-3a35.2 35.2 0 0020.2-23.7c1-3.5 1.6-7 2-10.2a206 206 0 0028.5-6.7c6.7-2.3 12.1-5 16.5-8.4 8.7-6.7 13.5-16 13.5-26.1 0-5.4-1.7-18.5-17.3-26.3-4-2-8.1-3.3-12.9-4.8-18-5.8-44.8-14.3-59.3-58.9l21.9-8.9a39.5 39.5 0 0024.8-45.5 35.8 35.8 0 00-43.3-27.1l-7.4 1.7a642 642 0 01-.5-26.7A141.7 141.7 0 00234 8.8z" fill='#F0F3BD'/></svg>